HIERARCHY
ROOT root
{
	OFFSET	0	13.1	24.9
	CHANNELS 6  Xposition Yposition Zposition Xrotation Yrotation Zrotation
	JOINT spine_1
	{
		OFFSET	0	9.99999	0
		CHANNELS 3  Xrotation Yrotation Zrotation
		JOINT spine_2
		{
			OFFSET	0	112	-10
			CHANNELS 3  Xrotation Yrotation Zrotation
			JOINT spine_3
			{
				OFFSET	0	206.5	19.3
				CHANNELS 3  Xrotation Yrotation Zrotation
				JOINT spine_4
				{
					OFFSET	0	110.4	14.6
					CHANNELS 3  Xrotation Yrotation Zrotation
					JOINT neck_1
					{
						OFFSET	0	71.8	-50.3
						CHANNELS 3  Xrotation Yrotation Zrotation
						JOINT neck_2
						{
							OFFSET	0	86.2	-25.8
							CHANNELS 3  Xrotation Yrotation Zrotation
							JOINT head_ee
							{
								OFFSET	0	179.8	-8.7
								CHANNELS 3  Xrotation Yrotation Zrotation
								End Site
								{
									OFFSET	1	0	0
								}
							}
						}
					}
					JOINT left_clavicle
					{
						OFFSET	-43.2	22.4	-70.8
						CHANNELS 3  Xrotation Yrotation Zrotation
						JOINT left_shoulder
						{
							OFFSET	-93.9	-5.79999	48.7
							CHANNELS 3  Xrotation Yrotation Zrotation
							JOINT left_elbow
							{
								OFFSET	-291.4	-30.8	15.2
								CHANNELS 3  Xrotation Yrotation Zrotation
								JOINT left_lowarm_twist
								{
									OFFSET	-110.7	-3.89999	13.6
									CHANNELS 3  Xrotation Yrotation Zrotation
									JOINT left_hand
									{
										OFFSET	-110.7	-3.89999	13.6
										CHANNELS 3  Xrotation Yrotation Zrotation
										JOINT left_ee
										{
											OFFSET	-80.8	-5.10001	12.1
											CHANNELS 3  Xrotation Yrotation Zrotation
											End Site
											{
												OFFSET	1	0	0
											}
										}
									}
								}
							}
						}
					}
					JOINT right_clavicle
					{
						OFFSET	43.2	22.4	-70.8
						CHANNELS 3  Xrotation Yrotation Zrotation
						JOINT right_shoulder
						{
							OFFSET	93.9	-5.79999	48.7
							CHANNELS 3  Xrotation Yrotation Zrotation
							JOINT right_elbow
							{
								OFFSET	291.4	-30.8	15.2
								CHANNELS 3  Xrotation Yrotation Zrotation
								JOINT right_lowarm_twist
								{
									OFFSET	110.7	-3.89999	13.6
									CHANNELS 3  Xrotation Yrotation Zrotation
									JOINT right_hand
									{
										OFFSET	110.7	-3.89999	13.6
										CHANNELS 3  Xrotation Yrotation Zrotation
										JOINT right_ee
										{
											OFFSET	80.8	-5.10001	12.1
											CHANNELS 3  Xrotation Yrotation Zrotation
											End Site
											{
												OFFSET	1	0	0
											}
										}
									}
								}
							}
						}
					}
				}
			}
		}
	}
	JOINT left_hip
	{
		OFFSET	-82.8	-127.5	0.300001
		CHANNELS 3  Xrotation Yrotation Zrotation
		JOINT left_knee
		{
			OFFSET	-28.2	-396.7	2.2
			CHANNELS 3  Xrotation Yrotation Zrotation
			JOINT left_ankle
			{
				OFFSET	-11.7	-411.3	35.4
				CHANNELS 3  Xrotation Yrotation Zrotation
				JOINT left_toes
				{
					OFFSET	0	-60	-88.6
					CHANNELS 3  Xrotation Yrotation Zrotation
					JOINT left_foot_ee
					{
						OFFSET	-22.5	-16.5	-42.2
						CHANNELS 3  Xrotation Yrotation Zrotation
						End Site
						{
							OFFSET	1	0	0
						}
					}
				}
			}
		}
	}
	JOINT right_hip
	{
		OFFSET	82.8	-127.5	0.300001
		CHANNELS 3  Xrotation Yrotation Zrotation
		JOINT right_knee
		{
			OFFSET	28.2	-396.7	2.2
			CHANNELS 3  Xrotation Yrotation Zrotation
			JOINT right_ankle
			{
				OFFSET	11.7	-411.3	35.4
				CHANNELS 3  Xrotation Yrotation Zrotation
				JOINT right_toes
				{
					OFFSET	0	-60	-88.6
					CHANNELS 3  Xrotation Yrotation Zrotation
					JOINT right_foot_ee
					{
						OFFSET	22.5	-16.5	-42.2
						CHANNELS 3  Xrotation Yrotation Zrotation
						End Site
						{
							OFFSET	1	0	0
						}
					}
				}
			}
		}
	}
}
MOTION
Frames: 10
Frame Time: 0.02
1237.98499116 739.088 -1766.36028328 14.551797743 24.4783784254 -4.35010543604 -5.83333 -0.419758 -1.39795 -5.83231 -0.329961 -1.42182 -5.82153 0.124383 -1.45429 -5.82447 -0.106831 -1.45568 -1.96134 18.1661 8.87941 -1.47797 25.8862 11.5812 -0.0 0.0 -0.0 6.89081 22.3105 12.3937 -8.02805 -15.3574 68.944 0.305978 -8.61906 0.0230579 -39.9284 -2.94356 4.05551 0.0507785 10.5027 4.67137 -0.0 0.0 -0.0 11.0755 23.7953 -21.5082 -15.5209 36.2408 -39.6543 0.749673 20.3733 -0.134709 -78.9958 7.6943 -5.29214 1.00955 4.23149 -5.01237 0.0 0.0 0.0 9.0918 -0.0325379 -11.9253 -57.6143 -1.94796 8.25739 6.12305 24.9485 -0.920744 -2.96134 0.0 0.0 -0.0 0.0 -0.0 0.135975 1.22001 -5.50014 -14.0074 -0.318884 -2.12062 -0.926141 0.0507457 -0.137335 -13.0078 0.0 0.0 0.0 0.0 0.0 
1192.32802256 736.461 -1793.5195337 19.234056856 32.043301906 -7.87042636156 -6.12722 -0.410103 -1.57139 -6.1259 -0.309294 -1.59429 -6.11401 0.205458 -1.61097 -6.11763 -0.051508 -1.62319 -4.40752 15.7732 8.76929 -4.1122 22.3186 11.5023 -0.0 0.0 -0.0 4.44012 21.2201 8.86976 -7.93344 -15.1425 72.4342 0.277503 -7.82739 0.018985 -39.2224 -2.86885 4.00425 1.54389 6.65142 12.9577 -0.0 0.0 -0.0 10.6785 24.6508 -20.5272 -13.0891 35.4634 -39.3776 0.827736 22.2953 -0.163113 -78.372 7.61496 -5.2987 0.147918 1.47309 -0.369242 0.0 0.0 0.0 9.61427 2.34409 -15.4241 -53.4507 -1.53579 7.76558 1.34574 24.3228 -0.204163 -4.85806 0.0 0.0 -0.0 0.0 -0.0 -3.79698 4.17081 -6.08963 -20.1959 -0.293258 -3.06933 3.44772 -4.64927 0.501108 -11.4534 0.0 0.0 0.0 0.0 0.0 
1188.46236108 736.461 -1791.30568643 19.3804187207 32.7022939213 -8.14377745065 -6.12722 -0.410103 -1.57139 -6.1259 -0.309294 -1.59429 -6.11401 0.205458 -1.61097 -6.11763 -0.051508 -1.62319 -4.40752 15.7732 8.76929 -4.1122 22.3186 11.5023 -0.0 0.0 -0.0 4.44012 21.2201 8.86976 -7.93344 -15.1425 72.4342 0.277503 -7.82739 0.018985 -39.2224 -2.86885 4.00425 1.54389 6.65142 12.9577 -0.0 0.0 -0.0 10.6785 24.6508 -20.5272 -13.0891 35.4634 -39.3776 0.827736 22.2953 -0.163113 -78.372 7.61496 -5.2987 0.147918 1.47309 -0.369242 0.0 0.0 0.0 9.61427 2.34409 -15.4241 -53.4507 -1.53579 7.76558 1.34574 24.3228 -0.204163 -4.85806 0.0 0.0 -0.0 0.0 -0.0 -3.79698 4.17081 -6.08963 -20.1959 -0.293258 -3.06933 3.44772 -4.64927 0.501108 -11.4534 0.0 0.0 0.0 0.0 0.0 
1161.35885069 738.646 -1792.57978073 20.9443824233 37.1221507914 -9.64560555692 -6.12384 -0.363187 -1.70412 -6.12226 -0.25403 -1.72377 -6.11094 0.29843 -1.71665 -6.11505 0.0236156 -1.74223 -4.56152 14.8593 7.64834 -4.32558 21.5262 10.2459 -0.0 0.0 -0.0 4.87766 22.3611 9.47671 -8.6085 -13.7278 71.1839 0.271939 -7.67233 0.0182345 -39.3844 -2.88594 4.0161 0.74213 11.3278 9.43566 -0.0 0.0 -0.0 10.4458 24.0072 -20.0665 -12.7573 35.3111 -38.4618 0.896126 23.9368 -0.189965 -79.2525 7.72693 -5.28918 -0.252599 2.24475 2.64488 0.0 0.0 0.0 10.6123 2.14694 -16.8745 -49.7123 -1.19721 7.29989 -0.215686 22.9402 0.0326215 -6.45672 0.0 0.0 -0.0 0.0 -0.0 -5.14747 0.563092 -5.7278 -21.3433 -0.277255 -3.24466 -0.541438 -2.59012 -0.0797508 -10.7018 0.0 0.0 0.0 0.0 0.0 
1120.31003552 736.281 -1815.28719876 24.046696221 40.729582687 -11.6278370774 -6.24168 -0.368138 -1.98865 -6.23952 -0.240875 -2.00803 -6.22614 0.403958 -1.98168 -6.23161 0.0859858 -2.02059 -4.6828 13.913 6.58496 -4.49637 20.614 9.03352 -0.0 0.0 -0.0 3.50802 23.3669 7.53409 -9.8783 -12.3568 72.6412 0.308238 -8.68176 0.0233978 -37.4623 -2.68541 3.87251 0.602779 13.7806 9.46431 -0.0 0.0 -0.0 10.4577 23.1482 -20.1736 -10.0555 34.8309 -37.5578 1.06541 27.8231 -0.263897 -78.4329 7.62271 -5.2981 -1.09442 -0.955895 6.90341 0.0 0.0 0.0 16.502 6.19973 -18.1409 -45.4763 -0.851401 6.74726 -10.5156 17.5963 1.58789 -6.92402 0.0 0.0 -0.0 0.0 -0.0 -8.14193 -1.52241 -5.44174 -27.2179 -0.140532 -4.13541 -1.96436 0.430932 -0.292291 -10.6382 0.0 0.0 0.0 0.0 0.0 
1092.46345831 732.977 -1818.23329672 24.2248414449 42.0583839095 -12.0468888044 -5.92139 -0.418696 -1.73523 -5.91977 -0.307448 -1.75835 -5.90651 0.252197 -1.76712 -5.91086 -0.0300053 -1.78476 -4.78572 11.6615 4.95724 -4.6699 17.7073 7.02412 -0.0 0.0 -0.0 3.90933 21.754 8.09659 -13.8167 -10.5587 71.8038 0.321869 -9.05944 0.0254998 -37.4799 -2.68723 3.87385 0.576637 14.6049 9.60588 -0.0 0.0 -0.0 10.5718 22.2484 -20.5102 -8.81382 32.3459 -37.6294 1.33609 33.4974 -0.402102 -79.6749 7.78058 -5.284 -1.84362 -2.23589 11.3675 0.0 0.0 0.0 14.9601 -0.55787 -13.9481 -44.4371 -0.772906 6.60795 -13.6695 22.3523 2.10586 -4.48385 0.0 0.0 -0.0 0.0 -0.0 -8.86727 3.8346 -6.70986 -26.9304 -0.149345 -4.09217 8.76311 -4.53828 1.25307 -10.8264 0.0 0.0 0.0 0.0 0.0 
1077.5543024 729.256 -1817.89765758 24.0487987622 43.8684707215 -12.0719374686 -5.83385 -0.269528 -1.81246 -5.83203 -0.15367 -1.82594 -5.82339 0.416837 -1.78436 -5.82781 0.129848 -1.82778 -3.4262 10.6113 2.79566 -3.31116 17.196 4.48262 -0.0 0.0 -0.0 4.01715 23.324 8.24231 -14.99 -10.8764 70.7138 0.439672 -12.2874 0.0473266 -36.8163 -2.61911 3.82275 1.07804 16.6124 13.491 -0.0 0.0 -0.0 10.405 20.5582 -20.2706 -9.08341 31.4252 -35.8426 1.50273 36.6619 -0.497907 -80.5393 7.89021 -5.27216 -2.79315 -7.04943 15.4315 0.0 0.0 0.0 14.986 -1.62937 -12.7293 -35.257 -0.192913 5.32299 -22.427 29.1176 3.60016 -3.23231 0.0 0.0 -0.0 0.0 -0.0 -9.73943 4.28515 -7.09969 -25.8127 -0.181543 -3.92365 14.1277 -7.50177 1.97778 -15.4387 0.0 0.0 0.0 0.0 0.0 
1063.76215515 725.836 -1816.34245024 23.4741022866 44.3839628337 -11.9526502341 -5.73679 -0.325315 -1.76211 -5.73509 -0.212546 -1.77924 -5.72485 0.343371 -1.75869 -5.72916 0.061357 -1.79083 -3.80537 9.83014 2.69059 -3.7155 15.9025 4.30053 -0.0 0.0 -0.0 4.68765 22.3588 9.20488 -16.9389 -8.78123 70.2419 0.453092 -12.6505 0.0502241 -35.2118 -2.45693 3.69599 0.649708 19.0124 11.656 -0.0 0.0 -0.0 10.2858 21.0669 -19.9635 -6.5272 30.3244 -37.0893 1.53938 37.3253 -0.519963 -79.606 7.77183 -5.28487 -3.88608 -9.96554 21.2999 0.0 0.0 0.0 12.5329 -4.71957 -11.9589 -23.9067 0.22884 3.635 -24.3572 29.7989 3.92864 -10.464 0.0 0.0 -0.0 0.0 -0.0 -9.53706 5.52971 -7.10656 -25.8735 -0.179875 -3.93284 19.1848 -7.20444 2.62914 -21.634 0.0 0.0 0.0 0.0 0.0 
1049.67964744 722.329 -1821.41361879 21.8028022825 42.4269971726 -9.96716008702 -5.40931 -0.244261 -1.93688 -5.40723 -0.120541 -1.9485 -5.39919 0.472164 -1.89428 -5.40416 0.167132 -1.94505 -2.91442 9.1161 1.69974 -2.81735 15.2458 3.07231 -0.0 0.0 -0.0 4.66747 20.2747 9.2205 -17.9681 -5.89898 72.4867 0.460667 -12.855 0.0518963 -32.9597 -2.23542 3.51055 0.883162 20.3514 13.547 -0.0 0.0 -0.0 9.71549 20.0481 -18.7635 -3.23695 30.5975 -39.3378 1.58821 38.1911 -0.549859 -80.0433 7.82733 -5.27916 -4.60337 -12.8529 24.502 0.0 0.0 0.0 9.63861 -7.18392 -13.4803 -13.6342 0.317151 2.06338 -22.377 29.5812 3.6031 -15.0078 0.0 0.0 -0.0 0.0 -0.0 -9.55615 5.06072 -6.1876 -25.4876 -0.190289 -3.87454 22.3481 -5.13732 3.01894 -26.3217 0.0 0.0 0.0 0.0 0.0 
1043.87127097 722.329 -1815.91251196 22.1394161633 43.3256043499 -10.4618596724 -5.40931 -0.244261 -1.93688 -5.40723 -0.120541 -1.9485 -5.39919 0.472164 -1.89428 -5.40416 0.167132 -1.94505 -2.91442 9.1161 1.69974 -2.81735 15.2458 3.07231 -0.0 0.0 -0.0 4.66747 20.2747 9.2205 -17.9681 -5.89898 72.4867 0.460667 -12.855 0.0518963 -32.9597 -2.23542 3.51055 0.883162 20.3514 13.547 -0.0 0.0 -0.0 9.71549 20.0481 -18.7635 -3.23695 30.5975 -39.3378 1.58821 38.1911 -0.549859 -80.0433 7.82733 -5.27916 -4.60337 -12.8529 24.502 0.0 0.0 0.0 9.63861 -7.18392 -13.4803 -13.6342 0.317151 2.06338 -22.377 29.5812 3.6031 -15.0078 0.0 0.0 -0.0 0.0 -0.0 -9.55615 5.06072 -6.1876 -25.4876 -0.190289 -3.87454 22.3481 -5.13732 3.01894 -26.3217 0.0 0.0 0.0 0.0 0.0 
